<?xml version="1.0" encoding="UTF-8"?>
<svg width="800" height="600" viewBox="0 0 800 600" fill="none" xmlns="http://www.w3.org/2000/svg">
  <!-- Background Elements -->
  <defs>
    <linearGradient id="grad1" x1="0%" y1="0%" x2="100%" y2="100%">
      <stop offset="0%" style="stop-color:#8B5CF6;stop-opacity:0.1" />
      <stop offset="100%" style="stop-color:#EC4899;stop-opacity:0.1" />
    </linearGradient>
    <linearGradient id="grad2" x1="0%" y1="0%" x2="100%" y2="0%">
      <stop offset="0%" style="stop-color:#8B5CF6;stop-opacity:1" />
      <stop offset="100%" style="stop-color:#EC4899;stop-opacity:1" />
    </linearGradient>
  </defs>

  <!-- Main Content -->
  <g transform="translate(100, 50)">
    <!-- Creator Working -->
    <g transform="translate(0, 100)">
      <rect x="50" y="50" width="200" height="150" rx="20" fill="#F3F4F6"/>
      <circle cx="150" cy="125" r="50" fill="url(#grad2)"/>
      <path d="M120 125 L180 125 M150 95 L150 155" stroke="white" stroke-width="4"/>
    </g>

    <!-- Connection Lines -->
    <path d="M250 200 Q 300 200, 350 150 T 450 100" stroke="url(#grad2)" stroke-width="4" fill="none"/>
    <path d="M250 200 Q 300 200, 350 250 T 450 300" stroke="url(#grad2)" stroke-width="4" fill="none"/>

    <!-- Engagement Elements -->
    <g transform="translate(450, 50)">
      <circle cx="0" cy="50" r="30" fill="#FCD34D"/>
      <path d="M-15 50 L15 50 M0 35 L0 65" stroke="#fff" stroke-width="4"/>
    </g>
    <g transform="translate(450, 250)">
      <circle cx="0" cy="50" r="30" fill="#FCD34D"/>
      <path d="M-15 50 L15 50 M0 35 L0 65" stroke="#fff" stroke-width="4"/>
    </g>

    <!-- Analytics -->
    <g transform="translate(500, 150)">
      <rect x="0" y="0" width="150" height="100" rx="10" fill="#F3F4F6"/>
      <path d="M20 80 L50 40 L80 60 L110 20" stroke="url(#grad2)" stroke-width="3" fill="none"/>
      <circle cx="50" cy="40" r="4" fill="#8B5CF6"/>
      <circle cx="80" cy="60" r="4" fill="#8B5CF6"/>
      <circle cx="110" cy="20" r="4" fill="#8B5CF6"/>
    </g>
  </g>

  <!-- Decorative Elements -->
  <circle cx="100" cy="100" r="50" fill="url(#grad1)"/>
  <circle cx="700" cy="500" r="70" fill="url(#grad1)"/>
  <circle cx="200" cy="500" r="40" fill="url(#grad1)"/>
  <circle cx="600" cy="150" r="30" fill="url(#grad1)"/>
</svg>